# xmcd
#
# Track frame offsets:
#	150
#	14575
#	26887
#	41146
#	52252
#	65779
#	77679
#	89580
#	100836
#	116136
#	127301
#	139814
#	153596
#
# Disc length: 2292 seconds
#
# Revision: 1
# Processed by: cddbd v1.5.2PL0 Copyright (c) Steve Scherf et al.
# Submitted via: audiograbber 1.83.01
#
DISCID=c908f20d
DTITLE=Moretti - Jaime José - Você me atrai
DYEAR=2010
DGENRE=BaIão
TTITLE0=Voce me Atrai
TTITLE1=Fim de Semana
TTITLE2=Pra Sempre te Amar
TTITLE3=Velho Não
TTITLE4=Donzela
TTITLE5=É No Bailão
TTITLE6=Caminhoneiro
TTITLE7=Quero Ficar Contigo
TTITLE8=Festeja
TTITLE9=Festa de São João
TTITLE10=Gringa, loira e morena
TTITLE11=Festa e Alegria
TTITLE12=Ricordi
EXTD=
EXTT0=
EXTT1=
EXTT2=
EXTT3=
EXTT4=
EXTT5=
EXTT6=
EXTT7=
EXTT8=
EXTT9=
EXTT10=
EXTT11=
EXTT12=
PLAYORDER=
